<svg width="64" height="64" viewBox="0 0 64 64" fill="none" xmlns="http://www.w3.org/2000/svg">
<path d="M17 58V6C8 11.2 2 20.9 2 32C2 43.1 8 52.8 17 58Z" fill="#699635"/>
<path d="M32 2C26.5 2 21.4 3.5 17 6V58C21.4 60.6 26.5 62 32 62C48.6 62 62 48.6 62 32C62 15.4 48.6 2 32 2Z" fill="#ED4C5C"/>
<path d="M17 20C10.4 20 5 25.4 5 32C5 38.6 10.4 44 17 44C23.6 44 29 38.6 29 32C29 25.4 23.6 20 17 20ZM17 42.5C11.2 42.5 6.5 37.8 6.5 32C6.5 26.2 11.2 21.5 17 21.5C22.8 21.5 27.5 26.2 27.5 32C27.5 37.8 22.8 42.5 17 42.5Z" fill="#FFE62E"/>
<path d="M21.0998 43.7C20.8998 43.9 20.5998 43.9 20.3998 43.7L6.6998 25.6C6.4998 25.4 6.4998 25.1 6.6998 24.9L6.9998 24.6C7.1998 24.4 7.4998 24.4 7.6998 24.6L21.3998 42.7C21.5998 42.9 21.5998 43.2 21.3998 43.4L21.0998 43.7" fill="#FFE62E"/>
<path d="M17.2 19.5C17.5 19.5 17.7 19.7 17.7 20V44C17.7 44.3 17.5 44.5 17.2 44.5H16.7C16.4 44.5 16.2 44.3 16.2 44V20C16.2 19.7 16.4 19.5 16.7 19.5H17.2Z" fill="#FFE62E"/>
<path d="M28.9 33.2999L17 31.2V32.7L28.7 34.7999C29 34.7999 29.2 34.7 29.3 34.4L29.4 33.9C29.4 33.7 29.2 33.3999 28.9 33.2999" fill="#FFE62E"/>
<path d="M17 31.1L7.59998 24.5C7.39998 24.3 7.09998 24.4 6.89998 24.6L6.59998 25C6.39998 25.2 6.49998 25.5 6.69998 25.7L17 32.9V31.1" fill="#FFE62E"/>
<path d="M16.5998 30L7.1998 39.4C6.9998 39.6 6.9998 39.9 7.1998 40.1L7.5998 40.5C7.7998 40.7 8.09981 40.7 8.29981 40.5L16.5998 32.2V30Z" fill="#FFE62E"/>
<path d="M16.9999 25.5L4.49988 31.4C4.29988 31.5 4.09988 31.8 4.29988 32.1L4.49988 32.6C4.59988 32.8 4.89988 33 5.19988 32.8L16.9999 27.2V25.5Z" fill="#FFE62E"/>
<path d="M28.1 27.2L16.2 25.1V26.6L27.9 28.7C28.2 28.7 28.4 28.6 28.5 28.3L28.6 27.8C28.5 27.5 28.3 27.2 28.1 27.2" fill="#FFE62E"/>
<path d="M16.8998 38.9001C16.6998 39.0001 16.4998 39.3 16.6998 39.6L16.8998 40.1C16.9998 40.3 17.2998 40.5 17.5998 40.3L27.5998 35.7001L28.0998 33.8L16.8998 38.9001" fill="#FFE62E"/>
<path d="M16.9 35.5L5.69995 31.4V33L16.9 37.1V35.5Z" fill="#FFE62E"/>
<path d="M9.09985 38.8V40.3L23.8999 41.3C24.4999 40.9 24.9999 40.4001 25.4999 39.9001L9.09985 38.8Z" fill="#FFE62E"/>
<path d="M12 27V34C12 36.8 14.2 39 17 39C19.8 39 22 36.8 22 34V27H12Z" fill="white"/>
<path d="M17 41C13.1 41 10 37.9 10 34V25H24V34C24 37.9 20.9 41 17 41ZM14 29V34C14 35.7 15.3 37 17 37C18.7 37 20 35.7 20 34V29H14Z" fill="#ED4C5C"/>
<path d="M16.1001 29.4V31C16.1001 31.3 16.3001 31.5 16.6001 31.5H17.4001C17.7001 31.5 17.9001 31.3 17.9001 31V29.3H16.1001V29.4Z" fill="#0071BC"/>
<path d="M16.1001 31.9V33.6C16.1001 33.9 16.3001 34.1 16.6001 34.1H17.4001C17.7001 34.1 17.9001 33.9 17.9001 33.6V31.9H16.1001" fill="#0071BC"/>
<path d="M14.1001 31.9V33.6C14.1001 33.9 14.3001 34.1 14.6001 34.1H15.4001C15.7001 34.1 15.9001 33.9 15.9001 33.6V31.9H14.1001" fill="#0071BC"/>
<path d="M18.1001 31.9V33.6C18.1001 33.9 18.3001 34.1 18.6001 34.1H19.4001C19.7001 34.1 19.9001 33.9 19.9001 33.6V31.9H18.1001" fill="#0071BC"/>
<path d="M16.1001 34.3V36C16.1001 36.3 16.3001 36.5 16.6001 36.5H17.4001C17.7001 36.5 17.9001 36.3 17.9001 36V34.3H16.1001Z" fill="#0071BC"/>
<path d="M16.9998 33.0999C17.1103 33.0999 17.1998 33.0104 17.1998 32.9C17.1998 32.7895 17.1103 32.7 16.9998 32.7C16.8893 32.7 16.7998 32.7895 16.7998 32.9C16.7998 33.0104 16.8893 33.0999 16.9998 33.0999Z" fill="white"/>
<path d="M16.5999 33.5999C16.7104 33.5999 16.7999 33.5104 16.7999 33.4C16.7999 33.2895 16.7104 33.2 16.5999 33.2C16.4894 33.2 16.3999 33.2895 16.3999 33.4C16.3999 33.5104 16.4894 33.5999 16.5999 33.5999Z" fill="white"/>
<path d="M17.4 33.5999C17.5104 33.5999 17.6 33.5104 17.6 33.4C17.6 33.2895 17.5104 33.2 17.4 33.2C17.2895 33.2 17.2 33.2895 17.2 33.4C17.2 33.5104 17.2895 33.5999 17.4 33.5999Z" fill="white"/>
<path d="M16.5999 32.5999C16.7104 32.5999 16.7999 32.5104 16.7999 32.4C16.7999 32.2895 16.7104 32.2 16.5999 32.2C16.4894 32.2 16.3999 32.2895 16.3999 32.4C16.3999 32.5104 16.4894 32.5999 16.5999 32.5999Z" fill="white"/>
<path d="M17.4 32.5999C17.5104 32.5999 17.6 32.5104 17.6 32.4C17.6 32.2895 17.5104 32.2 17.4 32.2C17.2895 32.2 17.2 32.2895 17.2 32.4C17.2 32.5104 17.2895 32.5999 17.4 32.5999Z" fill="white"/>
<path d="M16.9998 30.6C17.1103 30.6 17.1998 30.5104 17.1998 30.4C17.1998 30.2895 17.1103 30.2 16.9998 30.2C16.8893 30.2 16.7998 30.2895 16.7998 30.4C16.7998 30.5104 16.8893 30.6 16.9998 30.6Z" fill="white"/>
<path d="M16.5999 31.1C16.7104 31.1 16.7999 31.0104 16.7999 30.9C16.7999 30.7895 16.7104 30.7 16.5999 30.7C16.4894 30.7 16.3999 30.7895 16.3999 30.9C16.3999 31.0104 16.4894 31.1 16.5999 31.1Z" fill="white"/>
<path d="M17.4 31.1C17.5104 31.1 17.6 31.0104 17.6 30.9C17.6 30.7895 17.5104 30.7 17.4 30.7C17.2895 30.7 17.2 30.7895 17.2 30.9C17.2 31.0104 17.2895 31.1 17.4 31.1Z" fill="white"/>
<path d="M16.5999 30.1C16.7104 30.1 16.7999 30.0104 16.7999 29.9C16.7999 29.7895 16.7104 29.7 16.5999 29.7C16.4894 29.7 16.3999 29.7895 16.3999 29.9C16.3999 30.0104 16.4894 30.1 16.5999 30.1Z" fill="white"/>
<path d="M17.4 30.1C17.5104 30.1 17.6 30.0104 17.6 29.9C17.6 29.7895 17.5104 29.7 17.4 29.7C17.2895 29.7 17.2 29.7895 17.2 29.9C17.2 30.0104 17.2895 30.1 17.4 30.1Z" fill="white"/>
<path d="M18.9998 33.0999C19.1103 33.0999 19.1998 33.0104 19.1998 32.9C19.1998 32.7895 19.1103 32.7 18.9998 32.7C18.8893 32.7 18.7998 32.7895 18.7998 32.9C18.7998 33.0104 18.8893 33.0999 18.9998 33.0999Z" fill="white"/>
<path d="M18.5999 33.5999C18.7104 33.5999 18.7999 33.5104 18.7999 33.4C18.7999 33.2895 18.7104 33.2 18.5999 33.2C18.4894 33.2 18.3999 33.2895 18.3999 33.4C18.3999 33.5104 18.4894 33.5999 18.5999 33.5999Z" fill="white"/>
<path d="M19.4 33.5999C19.5104 33.5999 19.6 33.5104 19.6 33.4C19.6 33.2895 19.5104 33.2 19.4 33.2C19.2895 33.2 19.2 33.2895 19.2 33.4C19.2 33.5104 19.2895 33.5999 19.4 33.5999Z" fill="white"/>
<path d="M18.5999 32.5999C18.7104 32.5999 18.7999 32.5104 18.7999 32.4C18.7999 32.2895 18.7104 32.2 18.5999 32.2C18.4894 32.2 18.3999 32.2895 18.3999 32.4C18.3999 32.5104 18.4894 32.5999 18.5999 32.5999Z" fill="white"/>
<path d="M19.4 32.5999C19.5104 32.5999 19.6 32.5104 19.6 32.4C19.6 32.2895 19.5104 32.2 19.4 32.2C19.2895 32.2 19.2 32.2895 19.2 32.4C19.2 32.5104 19.2895 32.5999 19.4 32.5999Z" fill="white"/>
<path d="M14.9998 33.0999C15.1103 33.0999 15.1998 33.0104 15.1998 32.9C15.1998 32.7895 15.1103 32.7 14.9998 32.7C14.8893 32.7 14.7998 32.7895 14.7998 32.9C14.7998 33.0104 14.8893 33.0999 14.9998 33.0999Z" fill="white"/>
<path d="M14.5999 33.5999C14.7104 33.5999 14.7999 33.5104 14.7999 33.4C14.7999 33.2895 14.7104 33.2 14.5999 33.2C14.4894 33.2 14.3999 33.2895 14.3999 33.4C14.3999 33.5104 14.4894 33.5999 14.5999 33.5999Z" fill="white"/>
<path d="M15.4 33.5999C15.5104 33.5999 15.6 33.5104 15.6 33.4C15.6 33.2895 15.5104 33.2 15.4 33.2C15.2895 33.2 15.2 33.2895 15.2 33.4C15.2 33.5104 15.2895 33.5999 15.4 33.5999Z" fill="white"/>
<path d="M14.5999 32.5999C14.7104 32.5999 14.7999 32.5104 14.7999 32.4C14.7999 32.2895 14.7104 32.2 14.5999 32.2C14.4894 32.2 14.3999 32.2895 14.3999 32.4C14.3999 32.5104 14.4894 32.5999 14.5999 32.5999Z" fill="white"/>
<path d="M15.4 32.5999C15.5104 32.5999 15.6 32.5104 15.6 32.4C15.6 32.2895 15.5104 32.2 15.4 32.2C15.2895 32.2 15.2 32.2895 15.2 32.4C15.2 32.5104 15.2895 32.5999 15.4 32.5999Z" fill="white"/>
<path d="M16.9998 35.5999C17.1103 35.5999 17.1998 35.5104 17.1998 35.4C17.1998 35.2895 17.1103 35.2 16.9998 35.2C16.8893 35.2 16.7998 35.2895 16.7998 35.4C16.7998 35.5104 16.8893 35.5999 16.9998 35.5999Z" fill="white"/>
<path d="M16.5999 36.0999C16.7104 36.0999 16.7999 36.0104 16.7999 35.9C16.7999 35.7895 16.7104 35.7 16.5999 35.7C16.4894 35.7 16.3999 35.7895 16.3999 35.9C16.3999 36.0104 16.4894 36.0999 16.5999 36.0999Z" fill="white"/>
<path d="M17.4 36.0999C17.5104 36.0999 17.6 36.0104 17.6 35.9C17.6 35.7895 17.5104 35.7 17.4 35.7C17.2895 35.7 17.2 35.7895 17.2 35.9C17.2 36.0104 17.2895 36.0999 17.4 36.0999Z" fill="white"/>
<path d="M16.5999 35.0999C16.7104 35.0999 16.7999 35.0104 16.7999 34.9C16.7999 34.7895 16.7104 34.7 16.5999 34.7C16.4894 34.7 16.3999 34.7895 16.3999 34.9C16.3999 35.0104 16.4894 35.0999 16.5999 35.0999Z" fill="white"/>
<path d="M17.4 35.0999C17.5104 35.0999 17.6 35.0104 17.6 34.9C17.6 34.7895 17.5104 34.7 17.4 34.7C17.2895 34.7 17.2 34.7895 17.2 34.9C17.2 35.0104 17.2895 35.0999 17.4 35.0999Z" fill="white"/>
<path d="M16 28H18L17.8 27V26H18V25.5H17.7V25.8H17.6V25.5H17.3V25.8H17.1V25.5H16.9V25.8H16.7V25.5H16.4V25.8H16.2V25.5H16V26H16.2V27L16 28Z" fill="#FFE62E"/>
<path d="M17.2999 27.9999H17.2V27.5999C17.2 27.4999 17.1 27.3999 17 27.3999C16.9 27.3999 16.7999 27.4999 16.7999 27.5999V27.9999H16.7V27.5999C16.7 27.3999 16.8 27.2999 17 27.2999C17.2 27.2999 17.2999 27.3999 17.2999 27.5999V27.9999Z" fill="#3E4347"/>
<path d="M16.9999 26.9H16.3999V26.4C16.3999 26.2 16.4999 26.1 16.6999 26.1C16.8999 26.1 16.9999 26.2 16.9999 26.4V26.9ZM16.4999 26.8H16.8999V26.4C16.8999 26.3 16.7999 26.2 16.6999 26.2C16.5999 26.2 16.4999 26.3 16.4999 26.4V26.8Z" fill="#3E4347"/>
<path d="M17.6 26.9H17V26.4C17 26.2 17.1 26.1 17.3 26.1C17.5 26.1 17.6 26.2 17.6 26.4V26.9ZM17.1 26.8H17.5V26.4C17.5 26.3 17.4 26.2 17.3 26.2C17.2 26.2 17.1 26.3 17.1 26.4V26.8Z" fill="#3E4347"/>
<path d="M11 28H13L12.8 27V26H13V25.5H12.7V25.8H12.6V25.5H12.3V25.8H12.1V25.5H11.9V25.8H11.7V25.5H11.4V25.8H11.2V25.5H11V26H11.2V27L11 28Z" fill="#FFE62E"/>
<path d="M12.3 27.9999H12.2V27.5999C12.2 27.4999 12.1 27.3999 12 27.3999C11.9 27.3999 11.8 27.4999 11.8 27.5999V27.9999H11.7V27.5999C11.7 27.3999 11.8 27.2999 12 27.2999C12.2 27.2999 12.3 27.3999 12.3 27.5999V27.9999" fill="#3E4347"/>
<path d="M11.9999 26.9H11.3999V26.4C11.3999 26.2 11.4999 26.1 11.6999 26.1C11.8999 26.1 11.9999 26.2 11.9999 26.4V26.9V26.9ZM11.4999 26.8H11.8999V26.4C11.8999 26.3 11.7999 26.2 11.6999 26.2C11.5999 26.2 11.4999 26.3 11.4999 26.4V26.8" fill="#3E4347"/>
<path d="M12.6 26.9H12V26.4C12 26.2 12.1 26.1 12.3 26.1C12.5 26.1 12.6 26.2 12.6 26.4V26.9V26.9ZM12.1 26.8H12.5V26.4C12.5 26.3 12.4 26.2 12.3 26.2C12.2 26.2 12.1 26.3 12.1 26.4V26.8" fill="#3E4347"/>
<path d="M11 33.9H13L12.8 32.9V31.9H13V31.4H12.8V31.7H12.6V31.4H12.4V31.7H12.1V31.4H11.9V31.7H11.7V31.4H11.5V31.7H11.3V31.4H11V31.9H11.3V32.9L11 33.9Z" fill="#FFE62E"/>
<path d="M12.3 33.9H12.2V33.5C12.2 33.4 12.1 33.2999 12 33.2999C11.9 33.2999 11.8 33.4 11.8 33.5V33.9H11.7V33.5C11.7 33.3 11.8 33.2 12 33.2C12.2 33.2 12.3 33.3 12.3 33.5V33.9" fill="#3E4347"/>
<path d="M11.9999 32.8H11.3999V32.3C11.3999 32.1 11.4999 32 11.6999 32C11.8999 32 11.9999 32.1 11.9999 32.3V32.8V32.8ZM11.4999 32.7H11.8999V32.3C11.8999 32.2 11.7999 32.1 11.6999 32.1C11.5999 32.1 11.4999 32.2 11.4999 32.3V32.7" fill="#3E4347"/>
<path d="M12.6999 32.8H12.0999V32.3C12.0999 32.1 12.1999 32 12.3999 32C12.5999 32 12.6999 32.1 12.6999 32.3V32.8V32.8ZM12.1999 32.7H12.5999V32.3C12.5999 32.2 12.4999 32.1 12.3999 32.1C12.2999 32.1 12.1999 32.2 12.1999 32.3V32.7" fill="#3E4347"/>
<path d="M21 34H23L22.8 33V32H23V31.6H22.7V31.8H22.6V31.6H22.3V31.8H22.1V31.6H21.9V31.8H21.7V31.6H21.4V31.8H21.2V31.6H21V32H21.2V33L21 34Z" fill="#FFE62E"/>
<path d="M22.2999 33.9999H22.2V33.5999C22.2 33.4999 22.1 33.3999 22 33.3999C21.9 33.3999 21.7999 33.4999 21.7999 33.5999V33.9999H21.7V33.5999C21.7 33.3999 21.8 33.2999 22 33.2999C22.2 33.2999 22.2999 33.3999 22.2999 33.5999V33.9999Z" fill="#3E4347"/>
<path d="M21.9999 32.9H21.3999V32.4C21.3999 32.2 21.4999 32.1 21.6999 32.1C21.8999 32.1 21.9999 32.2 21.9999 32.4V32.9ZM21.4999 32.8H21.8999V32.4C21.8999 32.3 21.7999 32.2 21.6999 32.2C21.5999 32.2 21.4999 32.3 21.4999 32.4V32.8Z" fill="#3E4347"/>
<path d="M22.6 32.9H22V32.4C22 32.2 22.1 32.1 22.3 32.1C22.5 32.1 22.6 32.2 22.6 32.4V32.9ZM22.1 32.8H22.5V32.4C22.5 32.3 22.4 32.2 22.3 32.2C22.2 32.2 22.1 32.3 22.1 32.4V32.8Z" fill="#3E4347"/>
<path d="M21 28H23L22.8 27V26H23V25.5H22.7V25.8H22.6V25.5H22.3V25.8H22.1V25.5H21.9V25.8H21.7V25.5H21.4V25.8H21.2V25.5H21V26H21.2V27L21 28Z" fill="#FFE62E"/>
<path d="M22.2999 27.9999H22.2V27.5999C22.2 27.4999 22.1 27.3999 22 27.3999C21.9 27.3999 21.7999 27.4999 21.7999 27.5999V27.9999H21.7V27.5999C21.7 27.3999 21.8 27.2999 22 27.2999C22.2 27.2999 22.2999 27.3999 22.2999 27.5999V27.9999Z" fill="#3E4347"/>
<path d="M21.9999 26.9H21.3999V26.4C21.3999 26.2 21.4999 26.1 21.6999 26.1C21.8999 26.1 21.9999 26.2 21.9999 26.4V26.9ZM21.4999 26.8H21.8999V26.4C21.8999 26.3 21.7999 26.2 21.6999 26.2C21.5999 26.2 21.4999 26.3 21.4999 26.4V26.8Z" fill="#3E4347"/>
<path d="M22.6 26.9H22V26.4C22 26.2 22.1 26.1 22.3 26.1C22.5 26.1 22.6 26.2 22.6 26.4V26.9ZM22.1 26.8H22.5V26.4C22.5 26.3 22.4 26.2 22.3 26.2C22.2 26.2 22.1 26.3 22.1 26.4V26.8Z" fill="#3E4347"/>
<path d="M14.2 39.6L15.6 38.1L14.7 37.6L14 36.9L14.2 36.7L13.9 36.4L13.7 36.6L13.9 36.8L13.8 36.9L13.6 36.7L13.4 36.9L13.6 37L13.4 37.2L13.3 37L13.1 37.2L13.3 37.4L13.1 37.5L13 37.3L12.8 37.5L12.9 37.7L12.8 37.8L12.7 37.6L12.5 37.8L12.8 38.1H12.9L13 38L13.7 38.7L14.2 39.6Z" fill="#FFE62E"/>
<path d="M15.0999 38.5999L14.6999 38.4C14.5999 38.3 14.4999 38.3 14.3999 38.4C14.2999 38.5 14.2999 38.6 14.3999 38.7L14.6999 38.9999L14.5999 39.0999L14.2999 38.7999C14.1999 38.6999 14.1999 38.5 14.2999 38.4C14.3999 38.3 14.5999 38.3 14.6999 38.4L15.0999 38.5999Z" fill="#3E4347"/>
<path d="M14.1 38.1L13.7 38.5L13.4 38.2C13.3 38.1 13.3 37.9 13.4 37.8C13.5 37.7 13.7 37.7 13.8 37.8L14.1 38.1ZM13.7 38.4L14 38.1L13.7 37.8C13.6 37.7 13.5 37.7 13.4 37.8C13.3 37.9 13.3 38 13.4 38.1L13.7 38.4Z" fill="#3E4347"/>
<path d="M14.6 37.6L14.2 38L13.9 37.7C13.8 37.6 13.8 37.4 13.9 37.3C14 37.2 14.2 37.2 14.3 37.3L14.6 37.6ZM14.2 37.9L14.5 37.6L14.2 37.3C14.1 37.2 14 37.2 13.9 37.3C13.8 37.4 13.8 37.5 13.9 37.6L14.2 37.9Z" fill="#3E4347"/>
<path d="M19.7999 39.6L18.3999 38.1L19.1999 37.6L19.8999 36.9L19.7999 36.7L20.0999 36.4L20.2999 36.6L20.0999 36.8L20.1999 36.9L20.3999 36.7L20.5999 36.9L20.3999 37L20.5999 37.2L20.6999 37L20.8999 37.2L20.6999 37.4L20.8999 37.5L20.9999 37.3L21.1999 37.5L20.9999 37.7L21.1999 37.8L21.2999 37.6L21.4999 37.8L21.1999 38.1H21.0999L20.9999 38L20.2999 38.7L19.7999 39.6Z" fill="#FFE62E"/>
<path d="M18.8999 38.5999L19.2999 38.4C19.3999 38.3 19.4999 38.3 19.5999 38.4C19.6999 38.5 19.6999 38.6 19.5999 38.7L19.1999 38.9999L19.2999 39.0999L19.5999 38.7999C19.6999 38.6999 19.6999 38.5 19.5999 38.4C19.4999 38.3 19.2999 38.3 19.1999 38.4L18.8999 38.5999" fill="#3E4347"/>
<path d="M20.1999 37.8C20.2999 37.7 20.4999 37.7 20.5999 37.8C20.6999 37.9 20.6999 38.1 20.5999 38.2L20.2999 38.5L19.8999 38.1L20.1999 37.8ZM20.4999 38.1C20.5999 38 20.5999 37.9 20.4999 37.8C20.3999 37.7 20.2999 37.7 20.1999 37.8L19.9999 38.1L20.2999 38.4L20.4999 38.1Z" fill="#3E4347"/>
<path d="M19.6999 37.3C19.7999 37.2 19.9999 37.2 20.0999 37.3C20.1999 37.4 20.1999 37.6 20.0999 37.7L19.7999 38L19.3999 37.6L19.6999 37.3ZM20.0999 37.6C20.1999 37.5 20.1999 37.4 20.0999 37.3C19.9999 37.2 19.8999 37.2 19.7999 37.3L19.4999 37.6L19.7999 37.9L20.0999 37.6Z" fill="#3E4347"/>
</svg>
