<svg width="64" height="64" viewBox="0 0 64 64" fill="none" xmlns="http://www.w3.org/2000/svg">
<path d="M2 32C2 37.9 3.7 43.4 6.6 48H57.3C60.2 43.4 61.9 37.9 61.9 32C61.9 26.1 60.2 20.6 57.3 16H6.6C3.7 20.6 2 26.1 2 32Z" fill="#FFCE31"/>
<path d="M57.4001 16C52.1001 7.6 42.7001 2 32.0001 2C21.3001 2 11.9001 7.6 6.6001 16H57.4001Z" fill="#ED4C5C"/>
<path d="M6.6001 48C11.9001 56.4 21.3001 62 32.0001 62C42.7001 62 52.1001 56.4 57.4001 48H6.6001Z" fill="#ED4C5C"/>
<path d="M9.19995 28.7H12.4V30.5H9.19995V28.7Z" fill="#C8B100"/>
<path d="M9.19995 41.8999H12.5V43.5999H9.19995V41.8999Z" fill="#C8B100"/>
<path d="M8.8999 39.1C8.5999 39.3 8.3999 39.5 8.3999 39.6C8.3999 39.7 8.4999 39.8 8.6999 39.9C8.8999 40 9.0999 40.2 8.9999 40.4C9.1999 40.2 9.2999 40 9.2999 39.8C9.2999 39.5 9.0999 39.2 8.8999 39.1" fill="#ED4C5C"/>
<path d="M9.69995 30.5H12V41.9H9.69995V30.5Z" fill="white"/>
<path d="M14.4 34.7C13.9 34.5 13 34.3 12 34.3C11.7 34.3 11.3 34.3 10.9 34.4C9.49997 34.6 8.39997 35.2 8.49997 35.6L7.99997 34.5C7.89997 34 9.09997 33.4 10.6 33.1C11.1 33 11.6 33 12 33C13 33 13.9 33.1 14.4 33.3V34.7" fill="#ED4C5C"/>
<path d="M9.69985 36.2C9.09985 36.2 8.59985 36 8.59985 35.7C8.59985 35.5 8.79985 35.2 9.19985 35H9.79985L9.69985 36.2Z" fill="#ED4C5C"/>
<path d="M12 35.3C12.4 35.4 12.7 35.5 12.9 35.6C13 35.7 12.6 36.1001 12 36.4001V35.3" fill="#ED4C5C"/>
<path d="M8.19996 38.4C8.09996 38.2 8.79996 37.8 9.69996 37.5C10.1 37.4 10.4 37.2 10.9 37C12.1 36.5 13.1 35.8 12.9 35.6L13.1 36.8C13.2 37 12.4 37.6 11.2 38.2C10.8 38.4 10.1 38.7 9.69996 38.8C8.99996 39 8.39996 39.4 8.39996 39.5L8.19996 38.4" fill="#ED4C5C"/>
<path d="M30.7002 28.7H33.9002V30.5H30.7002V28.7Z" fill="#C8B100"/>
<path d="M30.6001 41.8999H33.9001V43.5999H30.6001V41.8999Z" fill="#C8B100"/>
<path d="M34.2001 39.1C34.5001 39.3 34.7001 39.5 34.7001 39.6C34.7001 39.7 34.6001 39.8 34.4001 39.9C34.2001 40.1 34 40.4 34.1 40.5C33.9 40.3 33.8 40.1 33.8 39.9C33.8 39.5 34.0001 39.2 34.2001 39.1" fill="#ED4C5C"/>
<path d="M31.1001 30.5H33.4001V41.9H31.1001V30.5Z" fill="white"/>
<path d="M28.7 34.7C29.2 34.5 30.1 34.3 31.1 34.3C31.4 34.3 31.8 34.3 32.2 34.4C33.6 34.6 34.6999 35.2 34.5999 35.6L35.0999 34.4C35.1999 33.9 34 33.3 32.5 33H31.1C30.1 33 29.2 33.1 28.7 33.3V34.7" fill="#ED4C5C"/>
<path d="M33.4001 36.2C34.0001 36.2 34.5 36 34.5 35.7C34.5 35.5 34.3001 35.2 33.9001 35H33.3L33.4001 36.2Z" fill="#ED4C5C"/>
<path d="M31.1001 35.3C30.7001 35.4 30.4001 35.5 30.2001 35.6C30.1001 35.7 30.5001 36.1001 31.1001 36.4001V35.3" fill="#ED4C5C"/>
<path d="M34.9001 38.4001C35.0001 38.2001 34.3001 37.8001 33.4001 37.5001C33.0001 37.4001 32.7001 37.2001 32.2001 37.0001C31.0001 36.5001 30.0001 35.8001 30.2001 35.6001L30.0001 36.8001C29.9001 37.0001 30.7001 37.6001 31.9001 38.2001C32.3001 38.4001 33.0001 38.7001 33.4001 38.8001C34.1001 39.0001 34.7001 39.5001 34.6001 39.6001L34.9001 38.4001" fill="#ED4C5C"/>
<path d="M21.5 22.3C23.4 22.3 27.3 22.7 28.7 24.1C27.2 27.7 24.8 26.2001 21.5 26.2001C18.3 26.2001 15.8 27.7 14.3 24.1C15.7 22.7 19.5 22.3 21.5 22.3Z" fill="#ED4C5C"/>
<path d="M26.4001 26.3C25.2001 25.6 23.4001 25.5 21.5001 25.5C19.6001 25.5 17.8001 25.7 16.6001 26.3L17.0001 28C18.1001 28.3 19.7001 28.5 21.5001 28.5C23.3001 28.5 24.8001 28.3 26.0001 28L26.4001 26.3Z" fill="#C8B100"/>
<path d="M28.1 22C27.7 21.7 26.9001 21.4 26.2001 21.4C25.9001 21.4 25.6 21.4 25.3 21.5C25.3 21.5 24.7 20.7 23.3 20.7C22.8 20.7 22.4 20.8 22 21V20.9C21.9 20.7 21.7 20.5 21.5 20.5C21.3 20.5 21 20.8 21 21V21.1C20.6 20.9 20.2 20.8 19.7 20.8C18.3 20.8 17.7 21.7 17.7 21.6C17.4 21.5 17.1 21.5 16.8 21.5C12.2 21.5 14.5 24.6 14.5 24.6L15 24C13.9 22.6 14.9 21.8 16.9 21.8C17.2 21.8 17.4 21.8 17.6 21.9C16.9 22.9 18.2 23.8 18.2 23.8L18.5 23.3C17.8 22.8 17.7 21.1 19.7 21.1C20.2 21.1 20.6 21.2 21 21.5C21 21.6 20.9 23 20.8 23.2L21.6 23.9L22.4 23.2C22.3 22.9 22.2001 21.6 22.2001 21.5C22.5001 21.3 23 21.1 23.5 21.1C25.6 21.1 25.6001 22.8 24.7001 23.3L25 23.8C25 23.8 26.1 22.9 25.6 21.9C25.8 21.9 26.1 21.8 26.3 21.8C28.7 21.8 28.8001 23.6 28.2001 24L28.6 24.6C28.4 24.6 29.5 23.2 28.1 22" fill="#C8B100"/>
<path d="M20.8999 20.1C20.8999 19.8 21.1999 19.5 21.4999 19.5C21.8999 19.5 22.0999 19.8 22.0999 20.1C22.0999 20.4 21.7999 20.7 21.4999 20.7C21.1999 20.7 20.8999 20.4 20.8999 20.1Z" fill="#005BBF"/>
<path d="M21.2999 18.4V18.7H20.9999V19H21.2999V20H20.8999V20.3H22.0999L22.1999 20.1L22.0999 20H21.6999V19H21.9999V18.7H21.6999V18.4H21.2999Z" fill="#C8B100"/>
<path d="M21.4999 28.3C19.8999 28.3 18.4999 28.1 17.3999 27.8C18.4999 27.5 19.8999 27.3 21.4999 27.3C23.0999 27.3 24.4999 27.5 25.5999 27.8C24.5999 28.1 23.0999 28.3 21.4999 28.3Z" fill="#ED4C5C"/>
<path d="M21.5999 45.6C19.6999 45.6 17.8999 45.1 16.2999 44.4C15.0999 43.8 14.3999 42.7 14.3999 41.4V36.6H28.7999V41.4C28.7999 42.7 27.9999 43.9 26.8999 44.4C25.2999 45.2 23.4999 45.6 21.5999 45.6Z" fill="white"/>
<path d="M21.5 28.6H28.7V36.6H21.5V28.6Z" fill="white"/>
<path d="M21.5999 41.4C21.5999 43.3 19.9999 44.8 17.9999 44.8C15.9999 44.8 14.3999 43.3 14.3999 41.4V36.6H21.5999V41.4Z" fill="#ED4C5C"/>
<path d="M15.9001 44.2C16.1001 44.3 16.4001 44.5 16.8001 44.6V36.4H16.0001L15.9001 44.2Z" fill="#C8B100"/>
<path d="M14.3 41.3C14.3 42.3 14.7 43.1 15.1 43.5V36.4H14.3V41.3Z" fill="#C8B100"/>
<path d="M17.5 44.8H18.3V36.4H17.5V44.8Z" fill="#C7B500"/>
<path d="M19.1001 44.6C19.4001 44.5 19.8001 44.3 20.0001 44.2V36.4H19.2001L19.1001 44.6" fill="#C8B100"/>
<path d="M14.3 28.6H21.5V36.6H14.3V28.6Z" fill="#ED4C5C"/>
<path d="M20.8 43.5C21.2 43.2 21.5 42.5 21.6 41.7V36.5H20.8V43.5Z" fill="#C8B100"/>
<path d="M28.7999 36.6V41.4C28.7999 43.3 27.1999 44.8 25.1999 44.8C23.1999 44.8 21.5999 43.3 21.5999 41.4V36.6H28.7999" fill="#ED4C5C"/>
<path d="M26.1999 30C26.4999 30.6 26.4999 32.1 25.5999 31.8C25.7999 31.9 25.8999 32.6 26.1999 33C26.6999 33.6 27.2999 33.1 27.1999 32.4C26.9999 31.3 27.0999 30.6 27.2999 29.5C27.2999 29.6 27.7999 29.6 27.9999 29.4C27.8999 29.7 27.7999 30.1 27.9999 30.1C27.7999 30.4 27.2999 30.9 27.1999 31.2C27.0999 31.9 28.1999 33.2 26.9999 33.5C26.1999 33.7 26.6999 34.3 26.9999 34.6C26.9999 34.6 26.5999 35.9 26.7999 35.8C25.9999 36.1 26.1999 35.4 26.1999 35.4C26.5999 34.2 25.4999 34.1 25.5999 33.9C24.5999 33.8 25.6999 34.8 24.7999 34.8C24.5999 34.8 24.1999 35 24.1999 35C23.0999 34.9 23.6999 33.9 24.0999 34C24.3999 34.1 24.6999 34.6 24.6999 33.9C24.6999 33.9 24.1999 33.1 25.4999 33.1C24.9999 33.1 24.6999 32.7 24.4999 32.2C24.2999 32.3 23.9999 32.8 22.8999 32.9C22.8999 32.9 22.5999 31.8 22.8999 32C23.2999 32.2 23.4999 32.2 23.8999 31.8C23.6999 31.5 22.4999 31.1 22.6999 30.4C22.6999 30.2 23.2999 29.9 23.2999 29.9C23.1999 30.4 23.4999 30.9 24.0999 30.9C24.8999 31 24.5999 30.7 24.6999 30.5C24.7999 30.3 25.3999 30.6 25.1999 30.1C25.1999 30 24.4999 29.9 24.6999 29.6C25.0999 29.1 25.6999 29.5 26.1999 30" fill="#ED4C5C"/>
<path d="M21.5999 44.6L21.3999 44.1L21.5999 43.5L21.7999 44.1L21.5999 44.6Z" fill="#ED4C5C"/>
<path d="M16.4999 30.3V30.8H16.6999V31.2H16.1999V32.2H16.4999V34.4H15.8999V35.5H19.9999V34.4H19.4999V32.2H19.6999V31.2H19.1999V30.8H19.4999V30.3H18.4999V30.8H18.6999V31.2H18.1999V30H18.4999V29.5H17.3999V30H17.6999V31.2H17.1999V30.8H17.3999V30.3H16.4999Z" fill="#C8B100"/>
<path d="M27.7999 42.6V37.6H22.5999V42.6L24.9999 43.7H25.2999L27.7999 42.6ZM24.9999 38V39.7L23.2999 38H24.9999ZM22.8999 38.1L24.8999 40.1L22.8999 42.1V38.1ZM23.0999 42.5L24.9999 40.6V43.4L23.0999 42.5ZM25.2999 43.3V40.5L27.1999 42.4L25.2999 43.3ZM27.3999 42.1L25.3999 40.1L27.3999 38.1V42.1ZM25.2999 38H26.9999L25.2999 39.7V38Z" fill="#C8B100"/>
<path d="M19.2 36.5C19.2 35 20.2 33.9 21.5 33.9C22.8 33.9 23.7999 35.1 23.7999 36.5C23.7999 37.9 22.8 39.1 21.5 39.1C20.2 39.1 19.2 38 19.2 36.5Z" fill="#ED4C5C"/>
<path d="M19.8999 36.5C19.8999 35.4 20.5999 34.6 21.4999 34.6C22.3999 34.6 23.0999 35.5 23.0999 36.5C23.0999 37.6 22.3999 38.4 21.4999 38.4C20.6999 38.5 19.8999 37.6 19.8999 36.5Z" fill="#005BBF"/>
<path d="M20.7999 35.2L20.3999 36.2999L20.6999 36.4L20.4999 36.7999H21.0999L20.8999 36.4L21.1999 36.2999L20.7999 35.2" fill="#C8B100"/>
<path d="M22.2999 35.2L21.8999 36.2999L22.1999 36.4L21.9999 36.7999H22.5999L22.4999 36.4L22.7999 36.2999L22.2999 35.2" fill="#C8B100"/>
<path d="M21.5999 36.5L21.0999 37.6L21.3999 37.7L21.2999 38.1H21.7999L21.6999 37.7L21.9999 37.6L21.5999 36.5Z" fill="#C8B100"/>
</svg>
